<svg width="102" height="102" viewBox="0 0 102 102" fill="none" xmlns="http://www.w3.org/2000/svg">
<rect width="101.995" height="101.995" rx="34" fill="white"/>
<path d="M81.1767 44.9618H20.8184M20.8184 39.5295L20.8184 62.4657C20.8184 65.8461 20.8184 67.5363 21.4762 68.8274C22.0549 69.9631 22.9783 70.8865 24.114 71.4652C25.4051 72.123 27.0953 72.123 30.4757 72.123L71.5194 72.123C74.8997 72.123 76.5899 72.123 77.8811 71.4652C79.0168 70.8865 79.9402 69.9631 80.5188 68.8274C81.1767 67.5363 81.1767 65.8461 81.1767 62.4657V39.5295C81.1767 36.1491 81.1767 34.459 80.5188 33.1678C79.9402 32.0321 79.0168 31.1087 77.8811 30.5301C76.5899 29.8722 74.8997 29.8722 71.5194 29.8722L30.4757 29.8722C27.0953 29.8722 25.4051 29.8722 24.114 30.5301C22.9783 31.1087 22.0549 32.0321 21.4762 33.1678C20.8184 34.4589 20.8184 36.1491 20.8184 39.5295Z" stroke="#691317" stroke-width="5" stroke-linecap="round" stroke-linejoin="round"/>
</svg>
