<svg width="102" height="102" viewBox="0 0 102 102" fill="none" xmlns="http://www.w3.org/2000/svg">
<rect width="101.783" height="101.783" rx="34" fill="white"/>
<path d="M61.423 49.3868H58.4139L53.9004 58.4139L47.8823 40.3596L43.3687 49.3868H40.3596M50.8707 30.2366C44.8546 23.2032 34.8222 21.3112 27.2844 27.7517C19.7465 34.1922 18.6853 44.9604 24.6048 52.5776C29.0759 58.331 41.7778 69.8813 47.7258 75.1891C48.8192 76.1648 49.3659 76.6526 50.0061 76.8447C50.5619 77.0114 51.1795 77.0114 51.7353 76.8447C52.3755 76.6526 52.9222 76.1648 54.0156 75.1891C59.9636 69.8813 72.6655 58.331 77.1366 52.5776C83.0561 44.9604 82.1244 34.1245 74.457 27.7517C66.7896 21.379 56.8869 23.2032 50.8707 30.2366Z" stroke="#691317" stroke-width="6.01811" stroke-linecap="round" stroke-linejoin="round"/>
</svg>
