<svg width="102" height="102" viewBox="0 0 102 102" fill="none" xmlns="http://www.w3.org/2000/svg">
<rect width="102" height="102" rx="34" fill="white"/>
<path d="M41.9456 78.1629V55.8289C41.9456 54.1386 41.9456 53.2934 42.2746 52.6478C42.5639 52.0799 43.0256 51.6182 43.5935 51.3288C44.2391 50.9999 45.0843 50.9999 46.7746 50.9999H55.2253C56.9156 50.9999 57.7608 50.9999 58.4064 51.3288C58.9743 51.6182 59.436 52.0799 59.7254 52.6478C60.0543 53.2934 60.0543 54.1386 60.0543 55.8289V78.1629M48.0352 23.1246L27.5655 39.0456C26.1971 40.1098 25.513 40.6419 25.0201 41.3083C24.5835 41.8986 24.2582 42.5636 24.0603 43.2707C23.8369 44.0689 23.8369 44.9356 23.8369 46.6691V68.505C23.8369 71.8856 23.8369 73.5759 24.4948 74.8671C25.0735 76.0029 25.997 76.9263 27.1328 77.505C28.424 78.1629 30.1143 78.1629 33.4949 78.1629H68.505C71.8856 78.1629 73.5759 78.1629 74.8672 77.505C76.003 76.9263 76.9264 76.0029 77.5051 74.8671C78.163 73.5759 78.163 71.8856 78.163 68.505V46.6691C78.163 44.9356 78.163 44.0689 77.9396 43.2707C77.7417 42.5636 77.4164 41.8986 76.9798 41.3083C76.4869 40.6419 75.8028 40.1098 74.4345 39.0456L53.9647 23.1246C52.9043 22.2999 52.3742 21.8875 51.7887 21.729C51.2722 21.5892 50.7277 21.5892 50.2112 21.729C49.6258 21.8875 49.0956 22.2999 48.0352 23.1246Z" stroke="#691317" stroke-width="6.03623" stroke-linecap="round" stroke-linejoin="round"/>
</svg>
