<svg width="102" height="102" viewBox="0 0 102 102" fill="none" xmlns="http://www.w3.org/2000/svg">
<rect width="101.785" height="101.785" rx="34" fill="white"/>
<path d="M41.8653 70.4522H59.9203M34.6433 20.8009H67.1423C68.8276 20.8009 69.6702 20.8009 70.3139 21.1289C70.8801 21.4174 71.3405 21.8777 71.629 22.4439C71.9569 23.0876 71.9569 23.9303 71.9569 25.6156V31.8581C71.9569 33.3302 71.9569 34.0662 71.7907 34.7588C71.6432 35.3729 71.4001 35.96 71.0701 36.4984C70.6979 37.1058 70.1775 37.6262 69.1366 38.6671L60.3156 47.4881C59.1239 48.6798 58.5281 49.2756 58.3048 49.9627C58.1085 50.5671 58.1085 51.2181 58.3048 51.8225C58.5281 52.5095 59.1239 53.1054 60.3156 54.2971L69.1366 63.118C70.1775 64.1589 70.6979 64.6794 71.0701 65.2867C71.4001 65.8252 71.6432 66.4122 71.7907 67.0263C71.9569 67.719 71.9569 68.455 71.9569 69.927V76.1696C71.9569 77.8549 71.9569 78.6975 71.629 79.3412C71.3405 79.9074 70.8801 80.3678 70.3139 80.6563C69.6702 80.9842 68.8276 80.9842 67.1423 80.9842H34.6433C32.958 80.9842 32.1153 80.9842 31.4716 80.6563C30.9054 80.3678 30.4451 79.9074 30.1566 79.3412C29.8286 78.6975 29.8286 77.8549 29.8286 76.1696V69.927C29.8286 68.455 29.8286 67.719 29.9949 67.0263C30.1423 66.4122 30.3855 65.8252 30.7155 65.2867C31.0877 64.6794 31.6081 64.1589 32.649 63.118L41.47 54.2971C42.6616 53.1054 43.2575 52.5095 43.4807 51.8225C43.6771 51.2181 43.6771 50.5671 43.4807 49.9627C43.2575 49.2756 42.6616 48.6797 41.47 47.4881L32.649 38.6671C31.6081 37.6262 31.0877 37.1058 30.7155 36.4984C30.3855 35.96 30.1423 35.3729 29.9949 34.7588C29.8286 34.0662 29.8286 33.3302 29.8286 31.8581V25.6156C29.8286 23.9303 29.8286 23.0876 30.1566 22.4439C30.4451 21.8777 30.9054 21.4174 31.4716 21.1289C32.1153 20.8009 32.958 20.8009 34.6433 20.8009Z" stroke="#691317" stroke-width="5" stroke-linecap="round" stroke-linejoin="round"/>
</svg>
