<svg width="102" height="102" viewBox="0 0 102 102" fill="none" xmlns="http://www.w3.org/2000/svg">
<rect width="101.783" height="101.783" rx="34" fill="white"/>
<path d="M50.8906 59.9185C41.3517 59.9185 32.8688 64.5242 27.4682 71.6717C26.3058 73.2101 25.7246 73.9792 25.7436 75.0187C25.7583 75.8219 26.2626 76.835 26.8945 77.3309C27.7125 77.9728 28.8459 77.9728 31.1128 77.9728H70.6685C72.9354 77.9728 74.0688 77.9728 74.8867 77.3309C75.5187 76.835 76.023 75.8219 76.0377 75.0187C76.0567 73.9792 75.4755 73.2101 74.3131 71.6717C68.9125 64.5242 60.4296 59.9185 50.8906 59.9185Z" stroke="#691317" stroke-width="6.01811" stroke-linecap="round" stroke-linejoin="round"/>
<path d="M50.8906 50.8913C58.369 50.8913 64.4314 44.8289 64.4314 37.3506C64.4314 29.8722 58.369 23.8098 50.8906 23.8098C43.4123 23.8098 37.3499 29.8722 37.3499 37.3506C37.3499 44.8289 43.4123 50.8913 50.8906 50.8913Z" stroke="#691317" stroke-width="6.01811" stroke-linecap="round" stroke-linejoin="round"/>
</svg>
