<svg width="102" height="102" viewBox="0 0 102 102" fill="none" xmlns="http://www.w3.org/2000/svg">
<rect width="101.783" height="101.783" rx="34" fill="white"/>
<g clip-path="url(#clip0_601_1723)">
<path d="M66.689 66.6889C66.689 67.886 67.1645 69.034 68.011 69.8805C68.8574 70.7269 70.0055 71.2025 71.2026 71.2025C72.3996 71.2025 73.5477 70.7269 74.3941 69.8805C75.2406 69.034 75.7161 67.886 75.7161 66.6889C75.7161 65.4918 75.2406 64.3438 74.3941 63.4973C73.5477 62.6508 72.3996 62.1753 71.2026 62.1753C70.0055 62.1753 68.8574 62.6508 68.011 63.4973C67.1645 64.3438 66.689 65.4918 66.689 66.6889Z" stroke="#691317" stroke-width="5" stroke-linecap="round" stroke-linejoin="round"/>
<path d="M26.0669 66.6889C26.0669 67.886 26.5424 69.034 27.3889 69.8805C28.2354 70.7269 29.3834 71.2025 30.5805 71.2025C31.7776 71.2025 32.9256 70.7269 33.7721 69.8805C34.6185 69.034 35.0941 67.886 35.0941 66.6889C35.0941 65.4918 34.6185 64.3438 33.7721 63.4973C32.9256 62.6508 31.7776 62.1753 30.5805 62.1753C29.3834 62.1753 28.2354 62.6508 27.3889 63.4973C26.5424 64.3438 26.0669 65.4918 26.0669 66.6889Z" stroke="#691317" stroke-width="5" stroke-linecap="round" stroke-linejoin="round"/>
<path d="M73.4591 48.6345H55.4048" stroke="#691317" stroke-width="5" stroke-linecap="round" stroke-linejoin="round"/>
<path d="M75.7162 66.6889H80.2298C81.4269 66.6889 82.5749 66.2134 83.4214 65.3669C84.2678 64.5204 84.7434 63.3724 84.7434 62.1753V57.6617C84.7434 53.3257 83.2629 53.4852 73.4594 48.6346L70.655 37.4168C70.1665 35.4641 69.0395 33.7307 67.453 32.492C65.8664 31.2533 63.9114 30.5804 61.8986 30.5802H21.5531C20.3561 30.5802 19.208 31.0557 18.3616 31.9022C17.5151 32.7487 17.0396 33.8967 17.0396 35.0938V62.1753C17.0396 63.3724 17.5151 64.5204 18.3616 65.3669C19.208 66.2134 20.3561 66.6889 21.5531 66.6889H26.0667" stroke="#691317" stroke-width="5" stroke-linecap="round" stroke-linejoin="round"/>
<path d="M66.6889 66.6888H35.0938" stroke="#691317" stroke-width="5" stroke-linecap="round" stroke-linejoin="round"/>
<path d="M55.4048 30.5802V66.6889" stroke="#691317" stroke-width="5" stroke-linecap="round" stroke-linejoin="round"/>
<path d="M46.378 48.6345H26.0669V39.6073H46.378V48.6345Z" stroke="#691317" stroke-width="5" stroke-linecap="round" stroke-linejoin="round"/>
</g>
<defs>
<clipPath id="clip0_601_1723">
<rect width="72.2174" height="72.2174" fill="white" transform="translate(14.7827 14.7826)"/>
</clipPath>
</defs>
</svg>
