<svg width="53" height="41" viewBox="0 0 53 41" fill="none" xmlns="http://www.w3.org/2000/svg">
<path d="M50.4353 13.61C50.4353 26.81 26.5353 40.74 26.5353 40.74C26.5353 40.74 2.63525 26.95 2.63525 13.61C2.63525 6.24001 8.61525 0.26001 15.9753 0.26001C20.2753 0.26001 24.0853 2.28001 26.5253 5.43001C28.7453 2.58001 32.0953 0.65001 35.8953 0.31001C36.2853 0.28001 36.6753 0.26001 37.0753 0.26001C44.3053 0.26001 50.1953 6.00001 50.4253 13.16C50.4353 13.32 50.4353 13.45 50.4353 13.61Z" fill="white"/>
<path opacity="0.3" d="M14.9351 5.60003C19.6551 5.60003 23.8451 6.81003 26.5351 10.27C29.2151 6.81003 33.4151 5.60003 38.1251 5.60003C41.2651 5.60003 44.1751 6.60003 46.5651 8.28003C44.3751 4.90003 40.5751 2.66003 36.2451 2.66003C32.2951 2.66003 28.7851 4.53003 26.5351 7.43003C24.2851 4.53003 20.7751 2.66003 16.8151 2.66003C12.4851 2.66003 8.68512 4.90003 6.49512 8.28003C8.88512 6.60003 11.7951 5.60003 14.9351 5.60003Z" fill="#D80F12"/>
<path d="M21.1852 30.53H21.1752C20.7552 30.52 20.4052 30.23 20.3252 29.82L16.6652 11.79L13.3052 23.08C13.1952 23.46 12.8452 23.71 12.4552 23.71H0.535156V21.94H11.7952L15.9752 7.89002C16.0952 7.50002 16.4652 7.23002 16.8652 7.26002C17.2752 7.28002 17.6152 7.57002 17.6952 7.97002L21.2452 25.45L23.8852 13.9C23.9752 13.5 24.3252 13.22 24.7352 13.21C24.7352 13.21 24.7352 13.21 24.7452 13.21C25.1452 13.21 25.5052 13.49 25.6052 13.88L27.6052 21.95H52.4652V23.72H26.9152C26.5152 23.72 26.1552 23.45 26.0552 23.05L24.7652 17.91L22.0352 29.85C21.9552 30.25 21.5952 30.53 21.1852 30.53Z" fill="#D80F12"/>
</svg>
