<svg width="84" height="41" viewBox="0 0 84 41" fill="none" xmlns="http://www.w3.org/2000/svg">
<path fill-rule="evenodd" clip-rule="evenodd" d="M13.0385 22.1759C4.79332 26.7662 0.517578 24.113 0.517578 35.5329H17.3142H18.1296H18.3325H18.4359H19.7605H19.9633C20.4724 34.2084 21.2837 32.8797 22.306 31.8615C23.3243 30.9426 24.4418 30.2307 25.667 29.5187C26.8881 28.8027 28.1091 28.0907 29.3302 27.3747C29.533 26.7621 29.8393 26.0501 30.0421 25.2347C28.1091 24.5228 25.8698 23.7032 23.018 22.1759L20.1702 30.4335L19.3507 25.1312L19.4542 25.0278C19.7605 24.8249 20.1661 24.113 20.1661 23.5004C20.1661 22.8878 18.9451 23.5004 18.2331 23.5004C17.4177 23.5004 16.3001 22.8878 16.3001 23.5004C16.3001 24.113 16.8093 24.8249 17.1156 25.0278C17.1156 25.0278 17.1156 25.1312 17.219 25.1312L16.3043 30.9426L13.0385 22.1759ZM72.1827 8.92235C72.1827 8.92235 71.6736 7.49435 71.6736 6.47612C71.6736 6.47612 66.0734 9.84124 64.0328 9.84124C64.0328 9.84124 67.7994 8.00346 68.412 6.57959C66.5783 7.90412 62.7082 9.84124 61.4913 9.73776C61.4913 9.73776 63.2215 8.82301 63.5236 7.90412C59.3514 8.92235 59.5542 12.184 59.3514 15.3463C59.3514 15.3463 58.6395 11.7784 58.3332 10.9629C56.603 5.15159 60.7794 0.565416 66.3755 0.461938C73.0975 0.358459 76.355 5.25507 74.0122 11.3727C73.6066 12.391 72.4849 16.0624 72.4849 16.0624C72.6919 13.7155 73.1968 11.1658 72.1827 8.92235ZM66.2762 17.1799C66.9881 16.7743 67.5966 16.9771 68.1098 17.5856C68.2133 17.7884 68.3126 17.8919 68.4161 18.0988C68.6189 18.3017 68.7224 18.608 68.9252 18.7114C69.0246 19.0177 69.3309 19.0177 69.6372 19.0177C69.9435 19.0177 70.1463 18.8149 70.1463 18.5086C70.1463 18.4051 70.1463 18.3058 70.1463 18.2023C70.5519 18.608 70.4526 19.2205 70.0428 19.5268C69.9393 19.6303 69.7365 19.6303 69.5337 19.7297C68.8218 19.9366 68.0105 19.8331 67.2944 19.4234C66.8888 19.2205 66.5825 18.9142 66.2762 18.3017C66.1768 18.3017 66.1768 18.4051 66.1768 18.5045C65.6677 19.3199 64.9558 19.7255 64.0369 19.829C63.6313 19.829 63.2256 19.829 62.7165 19.6262C62.4102 19.5227 62.2074 19.3199 62.1039 18.9142C62.1039 18.608 62.2074 18.4051 62.4102 18.3017C62.4102 18.4051 62.4102 18.5045 62.4102 18.608C62.4102 18.8108 62.613 19.0136 62.8159 19.0136C63.2215 19.1171 63.5278 19.0136 63.7306 18.7073C63.9334 18.401 64.1404 18.0947 64.2439 17.8919C64.4467 17.4821 64.753 17.1758 65.1586 16.973C65.5642 16.8736 65.8705 16.9771 66.2762 17.1799ZM65.7671 12.2875H66.7853C66.7853 12.184 66.7853 12.0847 66.7853 11.9812C66.7853 11.8777 66.7853 11.7784 66.8888 11.6749C66.8888 11.6749 66.9922 11.5714 67.0916 11.5714H71.5701C71.6778 11.5714 71.7771 11.6749 71.8764 11.6749C71.8764 11.7784 71.9799 11.8777 71.9799 11.9812C71.8764 12.4903 71.6736 14.4316 71.061 14.8372C70.5519 15.2428 69.7406 15.2428 69.3309 15.2428C69.0246 15.2428 68.1098 15.2428 67.7 14.8372C67.2944 14.5309 66.9881 13.7155 66.8888 12.9001H65.6677C65.4649 13.7155 65.2579 14.5309 64.8523 14.8372C64.3432 15.2428 63.5278 15.2428 63.1222 15.2428C62.8159 15.2428 62.0046 15.2428 61.4955 14.8372C60.8829 14.4316 60.5766 12.4944 60.5766 11.9812C60.5766 11.8777 60.5766 11.7784 60.6801 11.6749C60.7835 11.6749 60.7835 11.5714 60.8829 11.5714H65.3614C65.4649 11.5714 65.5642 11.6749 65.6677 11.6749C65.7671 11.7784 65.7671 11.8777 65.7671 11.9812C65.7671 12.0847 65.7671 12.184 65.7671 12.2875ZM61.0857 22.0766C58.4366 23.6039 56.3008 24.32 54.4713 25.0319C54.7776 26.0543 55.0798 27.0725 55.3861 27.8879C57.526 29.0096 59.964 30.1313 61.6983 31.6587C62.9193 32.7804 63.7347 34.1049 64.2439 35.5329H66.0734H66.2762H83.4826C83.4826 24.5228 79.3062 26.7621 70.9576 22.1759C69.5337 23.4011 67.907 24.3158 66.0734 24.3158C64.2439 24.32 62.5096 23.4011 61.0857 22.0766ZM24.3384 8.92235C24.3384 8.92235 23.7299 7.49435 23.8292 6.47612C23.8292 6.47612 18.1296 9.84124 16.0932 9.84124C16.0932 9.84124 19.8598 8.00346 20.4683 6.57959C18.6346 7.90412 14.868 9.84124 13.6469 9.73776C13.6469 9.73776 15.2778 8.82301 15.5841 7.90412C11.5111 8.92235 11.6105 12.184 11.4077 15.3463C11.4077 15.3463 10.6957 11.7784 10.4929 10.9629C8.76276 5.15159 12.8357 0.561277 18.4318 0.461938C25.2531 0.358459 28.4071 5.25507 26.0685 11.3727C25.6629 12.391 24.6447 16.0624 24.6447 16.0624C24.744 13.7155 25.2531 11.1658 24.3384 8.92235ZM17.9227 12.2875H19.0403C19.0403 12.184 19.0403 12.0847 18.9368 11.9812C18.9368 11.8777 19.0403 11.7784 19.0403 11.6749C19.1437 11.6749 19.2431 11.5714 19.3465 11.5714H23.8251C23.9286 11.5714 24.0279 11.6749 24.1314 11.6749C24.1314 11.7784 24.1314 11.8777 24.1314 11.9812C24.1314 12.4903 23.9286 14.4316 23.316 14.8372C22.8069 15.2428 21.8921 15.2428 21.5858 15.2428C21.2795 15.2428 20.3648 15.2428 19.8557 14.8372C19.45 14.5309 19.2431 13.7155 19.1437 12.9001H17.8233C17.7199 13.7155 17.517 14.5309 17.1114 14.8372C16.6023 15.2428 15.791 15.2428 15.3812 15.2428C15.075 15.2428 14.1602 15.2428 13.7504 14.8372C13.0385 14.4316 12.8357 12.4944 12.8357 11.9812C12.8357 11.8777 12.8357 11.7784 12.9392 11.6749C12.9392 11.6749 13.0385 11.5714 13.142 11.5714H17.6205C17.724 11.5714 17.8233 11.6749 17.9268 11.6749C17.9268 11.7784 18.0303 11.8777 18.0303 11.9812C18.0303 12.0847 18.0262 12.184 17.9227 12.2875ZM23.4236 12.2875C23.3201 13.2064 23.1173 14.1253 22.811 14.3281C22.7075 14.4316 22.2026 14.5309 21.59 14.5309C20.9774 14.5309 20.4683 14.4316 20.3689 14.3281C20.0626 14.1253 19.8598 13.2064 19.7605 12.2875H23.4236ZM17.2108 12.2875C17.1073 13.2064 16.9045 14.1253 16.7016 14.3281C16.4988 14.4316 15.9897 14.5309 15.3771 14.5309C14.7687 14.5309 14.3589 14.4316 14.1561 14.3281C13.9532 14.1253 13.6469 13.2064 13.5435 12.2875H17.2108Z" fill="white"/>
<g clip-path="url(#clip0_105_1044)">
<path fill-rule="evenodd" clip-rule="evenodd" d="M36.3459 25.3074C26.8673 30.6014 22.041 27.5384 22.041 40.5395H42.1035H42.2897H61.9796C61.9796 28.002 57.1492 30.6014 47.6747 25.3074C46.0936 26.7934 44.1441 27.8157 42.0993 27.8157C39.9677 27.8157 38.014 26.7934 36.3459 25.3074ZM51.1102 11.9338C50.924 11.7476 50.6466 11.8428 50.4604 12.1201C50.4604 12.1201 51.3876 7.47598 50.6466 5.52644C49.2518 0.414599 37.182 -1.06721 37.182 2.17788C31.9791 3.66383 32.9104 8.49421 33.6513 12.2112C33.6513 12.2112 33.2788 11.7476 32.8152 12.2112C32.2564 12.7699 32.9063 14.2559 33.0925 14.9057C33.2788 15.4645 33.3699 15.8329 33.5561 16.1144C33.5561 16.1144 33.5561 16.2054 33.5561 16.3006C33.5561 16.7642 33.7424 17.1367 34.0197 17.1367C35.2283 21.7767 38.8501 25.5847 42.1035 25.5847C45.0754 25.5847 48.7923 21.7767 49.9968 17.1326C50.2741 17.1326 50.4645 16.7601 50.4645 16.2965V16.1102C50.5556 15.924 50.7418 15.5515 50.9281 14.9016C51.1102 14.3511 51.8553 12.3974 51.1102 11.9338Z" fill="white"/>
</g>
<defs>
<clipPath id="clip0_105_1044">
<rect width="39.9386" height="40.0793" fill="white" transform="translate(22.041 0.460327)"/>
</clipPath>
</defs>
</svg>
