<svg width="1063" height="638" viewBox="0 0 1063 638" fill="none" xmlns="http://www.w3.org/2000/svg">
<g clip-path="url(#clip0_466_82)">
<rect width="638" height="1063" transform="matrix(0 -1 1 0 0 638)" fill="white"/>
<path d="M-62.7627 472.653L-18.6193 389.113H65.9158L108.635 472.653L66.3671 558.613H-19.0704L-62.7627 472.653Z" stroke="#FFC100" stroke-opacity="0.8" stroke-width="9"/>
<path d="M90.2373 561.653L134.381 478.113H218.916L261.635 561.653L219.367 647.613H133.93L90.2373 561.653Z" stroke="#FF6500" stroke-opacity="0.8" stroke-width="9"/>
<path d="M90.2373 372.653L134.381 289.113H218.916L261.635 372.653L219.367 458.613H133.93L90.2373 372.653Z" stroke="#FFC100" stroke-opacity="0.8" stroke-width="9"/>
<path d="M-62.7627 281.653L-18.6193 198.113H65.9158L108.635 281.653L66.3671 367.613H-19.0704L-62.7627 281.653Z" stroke="#FF6500" stroke-opacity="0.8" stroke-width="9"/>
<path d="M90.2373 183.653L134.381 100.113H218.916L261.635 183.653L219.367 269.613H133.93L90.2373 183.653Z" stroke="#FF6500" stroke-opacity="0.8" stroke-width="9"/>
<path d="M237.237 272.653L281.381 189.113H365.916L408.635 272.653L366.367 358.613H280.93L237.237 272.653Z" stroke="#FFC100" stroke-opacity="0.8" stroke-width="9"/>
<path d="M-62.7627 87.6535L-18.6193 4.11328H65.9158L108.635 87.6528L66.3671 173.613H-19.0704L-62.7627 87.6535Z" stroke="#D70000" stroke-opacity="0.8" stroke-width="9"/>
<path d="M237.237 461.653L281.381 378.113H365.916L408.635 461.653L366.367 547.613H280.93L237.237 461.653Z" stroke="#FF6500" stroke-opacity="0.8" stroke-width="9"/>
<path d="M386.237 550.653L430.381 467.113H514.916L557.635 550.653L515.367 636.613H429.93L386.237 550.653Z" stroke="#C40C0C" stroke-opacity="0.8" stroke-width="9"/>
<path d="M386.237 361.653L430.381 278.113H514.916L557.635 361.653L515.367 447.613H429.93L386.237 361.653Z" stroke="#FF6500" stroke-opacity="0.8" stroke-width="9"/>
<path d="M534.237 456.653L578.381 373.113H662.916L705.635 456.653L663.367 542.613H577.93L534.237 456.653Z" stroke="#C40C0C" stroke-opacity="0.8" stroke-width="9"/>
</g>
<defs>
<clipPath id="clip0_466_82">
<rect width="638" height="1063" fill="white" transform="matrix(0 -1 1 0 0 638)"/>
</clipPath>
</defs>
</svg>
