<svg width="1063" height="638" viewBox="0 0 1063 638" fill="none" xmlns="http://www.w3.org/2000/svg">
<g clip-path="url(#clip0_466_58)">
<rect width="638" height="1063" transform="matrix(0 -1 1 0 0 638)" fill="white"/>
<path d="M90.6694 726.737L174.631 683.4L175.445 598.869L92.3203 555.347L5.95689 596.786L5.13428 682.219L90.6694 726.737Z" stroke="#FFC100" stroke-width="9"/>
<path d="M3.14648 572.887L87.1078 529.55L87.9217 445.019L4.7974 401.497L-81.5661 442.936L-82.3887 528.369L3.14648 572.887Z" stroke="#FF6500" stroke-width="9"/>
<path d="M192.138 574.707L276.099 531.37L276.913 446.839L193.789 403.317L107.425 444.755L106.603 530.189L192.138 574.707Z" stroke="#FFC100" stroke-width="9"/>
<path d="M281.66 728.576L365.621 685.239L366.435 600.708L283.311 557.186L196.948 598.624L196.125 684.058L281.66 728.576Z" stroke="#FF6500" stroke-width="9"/>
<path d="M381.129 576.527L465.09 533.19L465.904 448.658L382.78 405.137L296.416 446.575L295.594 532.009L381.129 576.527Z" stroke="#FF6500" stroke-width="9"/>
<path d="M293.548 428.676L377.51 385.339L378.324 300.808L295.199 257.287L208.836 298.725L208.013 384.159L293.548 428.676Z" stroke="#FFC100" stroke-width="9"/>
<path d="M475.651 730.444L559.613 687.107L560.427 602.575L477.302 559.054L390.939 600.492L390.116 685.926L475.651 730.444Z" stroke="#D70000" stroke-width="9"/>
<path d="M104.557 426.857L188.518 383.52L189.332 298.988L106.208 255.467L19.8446 296.905L19.022 382.339L104.557 426.857Z" stroke="#FF6500" stroke-width="9"/>
<path d="M16.9961 277.007L100.957 233.67L101.771 149.138L18.647 105.617L-67.7164 147.055L-68.5391 232.489L16.9961 277.007Z" stroke="#C40C0C" stroke-width="9"/>
<path d="M205.987 278.826L289.949 235.489L290.763 150.958L207.638 107.437L121.275 148.875L120.452 234.308L205.987 278.826Z" stroke="#FF6500" stroke-width="9"/>
<path d="M112.416 129.919L196.378 86.5817L197.192 2.05045L114.067 -41.471L27.704 -0.0327284L26.8814 85.4008L112.416 129.919Z" stroke="#C40C0C" stroke-width="9"/>
</g>
<defs>
<clipPath id="clip0_466_58">
<rect width="638" height="1063" fill="white" transform="matrix(0 -1 1 0 0 638)"/>
</clipPath>
</defs>
</svg>
