<svg width="72" height="72" viewBox="0 0 162 72" fill="none" xmlns="http://www.w3.org/2000/svg">
<path d="M86.4201 8.2199C85.8091 6.8159 84.7546 5.65097 83.4182 4.90362C82.0818 4.15627 80.5372 3.86773 79.0211 4.0822C77.505 4.29668 76.1011 5.00235 75.0244 6.09107C73.9477 7.17979 73.2577 8.59151 73.0601 10.1099C72.1067 10.3382 71.2704 10.9087 70.7099 11.7131C70.1494 12.5174 69.9038 13.4996 70.0198 14.4731C70.1358 15.4466 70.6052 16.3436 71.339 16.9938C72.0728 17.6439 73.0198 18.002 74.0001 17.9999C74.2654 17.9999 74.5197 17.8945 74.7072 17.707C74.8948 17.5195 75.0001 17.2651 75.0001 16.9999C75.0001 16.7347 74.8948 16.4803 74.7072 16.2928C74.5197 16.1053 74.2654 15.9999 74.0001 15.9999C73.4697 15.9999 72.961 15.7892 72.5859 15.4141C72.2108 15.039 72.0001 14.5303 72.0001 13.9999C72.0001 13.4695 72.2108 12.9608 72.5859 12.5857C72.961 12.2106 73.4697 11.9999 74.0001 11.9999C74.2654 11.9999 74.5197 11.8945 74.7072 11.707C74.8948 11.5195 75.0001 11.2651 75.0001 10.9999C75.0027 9.81717 75.4244 8.67365 76.1904 7.77248C76.9564 6.87131 78.017 6.27085 79.1839 6.07777C80.3507 5.88469 81.5483 6.1115 82.5637 6.7179C83.5791 7.32431 84.3467 8.27104 84.7301 9.3899C84.7873 9.56174 84.89 9.71483 85.0274 9.83283C85.1648 9.95083 85.3316 10.0293 85.5101 10.0599C86.1762 10.1858 86.78 10.5335 87.2232 11.0464C87.6663 11.5594 87.9227 12.2073 87.9505 12.8845C87.9784 13.5618 87.776 14.2286 87.3764 14.7761C86.9769 15.3237 86.4036 15.7198 85.7501 15.8999C85.4929 15.9662 85.2725 16.132 85.1375 16.3608C85.0024 16.5896 84.9638 16.8626 85.0301 17.1199C85.0964 17.3772 85.2622 17.5975 85.491 17.7326C85.7198 17.8676 85.9929 17.9062 86.2501 17.8399C87.3025 17.5618 88.2354 16.9479 88.9071 16.0914C89.5789 15.2348 89.9527 14.1825 89.972 13.0942C89.9912 12.0058 89.6547 10.9409 89.0137 10.0612C88.3727 9.18149 87.462 8.53499 86.4201 8.2199V8.2199ZM80.7101 10.2899C80.615 10.1989 80.5029 10.1275 80.3801 10.0799C80.1367 9.97988 79.8636 9.97988 79.6201 10.0799C79.4974 10.1275 79.3852 10.1989 79.2901 10.2899L76.2901 13.2899C76.1018 13.4782 75.996 13.7336 75.996 13.9999C75.996 14.2662 76.1018 14.5216 76.2901 14.7099C76.4784 14.8982 76.7338 15.004 77.0001 15.004C77.2664 15.004 77.5218 14.8982 77.7101 14.7099L79.0001 13.4099V18.9999C79.0001 19.2651 79.1055 19.5195 79.293 19.707C79.4806 19.8945 79.7349 19.9999 80.0001 19.9999C80.2654 19.9999 80.5197 19.8945 80.7072 19.707C80.8948 19.5195 81.0001 19.2651 81.0001 18.9999V13.4099L82.2901 14.7099C82.3831 14.8036 82.4937 14.878 82.6156 14.9288C82.7374 14.9796 82.8681 15.0057 83.0001 15.0057C83.1321 15.0057 83.2629 14.9796 83.3847 14.9288C83.5066 14.878 83.6172 14.8036 83.7101 14.7099C83.8039 14.6169 83.8783 14.5063 83.929 14.3845C83.9798 14.2626 84.0059 14.1319 84.0059 13.9999C84.0059 13.8679 83.9798 13.7372 83.929 13.6153C83.8783 13.4935 83.8039 13.3829 83.7101 13.2899L80.7101 10.2899Z" fill="#6B7280"/>
<path d="M5.064 43.144C4.424 43.144 3.832 43.028 3.288 42.796C2.752 42.564 2.28 42.24 1.872 41.824C1.472 41.408 1.16 40.92 0.936 40.36C0.712 39.8 0.6 39.188 0.6 38.524C0.6 37.86 0.708 37.248 0.924 36.688C1.148 36.12 1.46 35.632 1.86 35.224C2.268 34.808 2.744 34.488 3.288 34.264C3.832 34.032 4.424 33.916 5.064 33.916C5.704 33.916 6.276 34.024 6.78 34.24C7.292 34.456 7.724 34.744 8.076 35.104C8.428 35.456 8.68 35.844 8.832 36.268L7.368 36.952C7.2 36.504 6.916 36.136 6.516 35.848C6.116 35.552 5.632 35.404 5.064 35.404C4.504 35.404 4.008 35.536 3.576 35.8C3.152 36.064 2.82 36.428 2.58 36.892C2.348 37.356 2.232 37.9 2.232 38.524C2.232 39.148 2.348 39.696 2.58 40.168C2.82 40.632 3.152 40.996 3.576 41.26C4.008 41.524 4.504 41.656 5.064 41.656C5.632 41.656 6.116 41.512 6.516 41.224C6.916 40.928 7.2 40.556 7.368 40.108L8.832 40.792C8.68 41.216 8.428 41.608 8.076 41.968C7.724 42.32 7.292 42.604 6.78 42.82C6.276 43.036 5.704 43.144 5.064 43.144ZM10.025 43V33.916H11.597V43H10.025ZM13.0484 43V36.472H14.6204V43H13.0484ZM13.0484 35.74V34.06H14.6204V35.74H13.0484ZM19.2158 43.144C18.5678 43.144 17.9838 42.996 17.4638 42.7C16.9518 42.396 16.5478 41.988 16.2518 41.476C15.9558 40.956 15.8078 40.372 15.8078 39.724C15.8078 39.076 15.9558 38.496 16.2518 37.984C16.5478 37.472 16.9518 37.068 17.4638 36.772C17.9838 36.476 18.5678 36.328 19.2158 36.328C19.6798 36.328 20.1118 36.412 20.5118 36.58C20.9118 36.74 21.2558 36.964 21.5438 37.252C21.8398 37.532 22.0518 37.868 22.1798 38.26L20.7998 38.86C20.6798 38.532 20.4758 38.268 20.1878 38.068C19.9078 37.868 19.5838 37.768 19.2158 37.768C18.8718 37.768 18.5638 37.852 18.2918 38.02C18.0278 38.188 17.8198 38.42 17.6678 38.716C17.5158 39.012 17.4398 39.352 17.4398 39.736C17.4398 40.12 17.5158 40.46 17.6678 40.756C17.8198 41.052 18.0278 41.284 18.2918 41.452C18.5638 41.62 18.8718 41.704 19.2158 41.704C19.5918 41.704 19.9198 41.604 20.1998 41.404C20.4798 41.204 20.6798 40.936 20.7998 40.6L22.1798 41.224C22.0518 41.592 21.8438 41.924 21.5558 42.22C21.2678 42.508 20.9238 42.736 20.5238 42.904C20.1238 43.064 19.6878 43.144 19.2158 43.144ZM23.3726 43V33.916H24.9446V39.868L24.3446 39.688L27.4166 36.472H29.3726L26.9606 39.1L29.4206 43H27.6206L25.4846 39.616L26.4206 39.424L24.4526 41.536L24.9446 40.576V43H23.3726ZM35.4072 43.072C34.6712 43.072 34.0992 42.872 33.6912 42.472C33.2912 42.064 33.0912 41.492 33.0912 40.756V37.876H31.9632V36.472H32.0832C32.4032 36.472 32.6512 36.388 32.8272 36.22C33.0032 36.052 33.0912 35.808 33.0912 35.488V34.984H34.6632V36.472H36.1632V37.876H34.6632V40.672C34.6632 40.888 34.6992 41.072 34.7712 41.224C34.8512 41.376 34.9712 41.492 35.1312 41.572C35.2992 41.652 35.5112 41.692 35.7672 41.692C35.8232 41.692 35.8872 41.688 35.9592 41.68C36.0392 41.672 36.1152 41.664 36.1872 41.656V43C36.0752 43.016 35.9472 43.032 35.8032 43.048C35.6592 43.064 35.5272 43.072 35.4072 43.072ZM40.5217 43.144C39.8817 43.144 39.2977 42.996 38.7697 42.7C38.2497 42.404 37.8337 42 37.5217 41.488C37.2177 40.976 37.0657 40.392 37.0657 39.736C37.0657 39.08 37.2177 38.496 37.5217 37.984C37.8337 37.472 38.2497 37.068 38.7697 36.772C39.2897 36.476 39.8737 36.328 40.5217 36.328C41.1617 36.328 41.7417 36.476 42.2617 36.772C42.7817 37.068 43.1937 37.472 43.4977 37.984C43.8097 38.488 43.9657 39.072 43.9657 39.736C43.9657 40.392 43.8097 40.976 43.4977 41.488C43.1857 42 42.7697 42.404 42.2497 42.7C41.7297 42.996 41.1537 43.144 40.5217 43.144ZM40.5217 41.704C40.8737 41.704 41.1817 41.62 41.4457 41.452C41.7177 41.284 41.9297 41.052 42.0817 40.756C42.2417 40.452 42.3217 40.112 42.3217 39.736C42.3217 39.352 42.2417 39.016 42.0817 38.728C41.9297 38.432 41.7177 38.2 41.4457 38.032C41.1817 37.856 40.8737 37.768 40.5217 37.768C40.1617 37.768 39.8457 37.856 39.5737 38.032C39.3017 38.2 39.0857 38.432 38.9257 38.728C38.7737 39.016 38.6977 39.352 38.6977 39.736C38.6977 40.112 38.7737 40.452 38.9257 40.756C39.0857 41.052 39.3017 41.284 39.5737 41.452C39.8457 41.62 40.1617 41.704 40.5217 41.704ZM50.8666 43.144C50.1786 43.144 49.5666 43 49.0306 42.712C48.5026 42.424 48.0866 42.028 47.7826 41.524C47.4786 41.02 47.3266 40.448 47.3266 39.808V34.06H48.9586V39.724C48.9586 40.092 49.0386 40.424 49.1986 40.72C49.3666 41.016 49.5946 41.248 49.8826 41.416C50.1706 41.576 50.4986 41.656 50.8666 41.656C51.2426 41.656 51.5706 41.576 51.8506 41.416C52.1386 41.248 52.3626 41.016 52.5226 40.72C52.6906 40.424 52.7746 40.092 52.7746 39.724V34.06H54.4066V39.808C54.4066 40.448 54.2546 41.02 53.9506 41.524C53.6466 42.028 53.2266 42.424 52.6906 42.712C52.1626 43 51.5546 43.144 50.8666 43.144ZM55.9039 45.4V36.472H57.3799V37.768L57.2359 37.444C57.4599 37.092 57.7639 36.82 58.1479 36.628C58.5319 36.428 58.9759 36.328 59.4799 36.328C60.0959 36.328 60.6519 36.48 61.1479 36.784C61.6439 37.088 62.0359 37.496 62.3239 38.008C62.6199 38.52 62.7679 39.096 62.7679 39.736C62.7679 40.368 62.6239 40.944 62.3359 41.464C62.0479 41.984 61.6559 42.396 61.1599 42.7C60.6639 42.996 60.0999 43.144 59.4679 43.144C58.9959 43.144 58.5599 43.052 58.1599 42.868C57.7679 42.676 57.4559 42.404 57.2239 42.052L57.4759 41.74V45.4H55.9039ZM59.2879 41.704C59.6479 41.704 59.9679 41.62 60.2479 41.452C60.5279 41.284 60.7439 41.052 60.8959 40.756C61.0559 40.46 61.1359 40.12 61.1359 39.736C61.1359 39.352 61.0559 39.016 60.8959 38.728C60.7439 38.432 60.5279 38.2 60.2479 38.032C59.9679 37.856 59.6479 37.768 59.2879 37.768C58.9439 37.768 58.6319 37.852 58.3519 38.02C58.0799 38.188 57.8639 38.424 57.7039 38.728C57.5519 39.024 57.4759 39.36 57.4759 39.736C57.4759 40.12 57.5519 40.46 57.7039 40.756C57.8639 41.052 58.0799 41.284 58.3519 41.452C58.6319 41.62 58.9439 41.704 59.2879 41.704ZM63.9664 43V33.916H65.5384V43H63.9664ZM70.1818 43.144C69.5418 43.144 68.9578 42.996 68.4298 42.7C67.9098 42.404 67.4938 42 67.1818 41.488C66.8778 40.976 66.7258 40.392 66.7258 39.736C66.7258 39.08 66.8778 38.496 67.1818 37.984C67.4938 37.472 67.9098 37.068 68.4298 36.772C68.9498 36.476 69.5338 36.328 70.1818 36.328C70.8218 36.328 71.4018 36.476 71.9218 36.772C72.4418 37.068 72.8538 37.472 73.1578 37.984C73.4698 38.488 73.6258 39.072 73.6258 39.736C73.6258 40.392 73.4698 40.976 73.1578 41.488C72.8458 42 72.4298 42.404 71.9098 42.7C71.3898 42.996 70.8138 43.144 70.1818 43.144ZM70.1818 41.704C70.5338 41.704 70.8418 41.62 71.1058 41.452C71.3778 41.284 71.5898 41.052 71.7418 40.756C71.9018 40.452 71.9818 40.112 71.9818 39.736C71.9818 39.352 71.9018 39.016 71.7418 38.728C71.5898 38.432 71.3778 38.2 71.1058 38.032C70.8418 37.856 70.5338 37.768 70.1818 37.768C69.8218 37.768 69.5058 37.856 69.2338 38.032C68.9618 38.2 68.7458 38.432 68.5858 38.728C68.4338 39.016 68.3578 39.352 68.3578 39.736C68.3578 40.112 68.4338 40.452 68.5858 40.756C68.7458 41.052 68.9618 41.284 69.2338 41.452C69.5058 41.62 69.8218 41.704 70.1818 41.704ZM76.7979 43.144C76.3419 43.144 75.9459 43.068 75.6099 42.916C75.2739 42.764 75.0139 42.548 74.8299 42.268C74.6459 41.98 74.5539 41.648 74.5539 41.272C74.5539 40.912 74.6339 40.592 74.7939 40.312C74.9539 40.024 75.2019 39.784 75.5379 39.592C75.8739 39.4 76.2979 39.264 76.8099 39.184L78.9459 38.836V40.036L77.1099 40.348C76.7979 40.404 76.5659 40.504 76.4139 40.648C76.2619 40.792 76.1859 40.98 76.1859 41.212C76.1859 41.436 76.2699 41.616 76.4379 41.752C76.6139 41.88 76.8299 41.944 77.0859 41.944C77.4139 41.944 77.7019 41.876 77.9499 41.74C78.2059 41.596 78.4019 41.4 78.5379 41.152C78.6819 40.904 78.7539 40.632 78.7539 40.336V38.656C78.7539 38.376 78.6419 38.144 78.4179 37.96C78.2019 37.768 77.9139 37.672 77.5539 37.672C77.2179 37.672 76.9179 37.764 76.6539 37.948C76.3979 38.124 76.2099 38.36 76.0899 38.656L74.8059 38.032C74.9339 37.688 75.1339 37.392 75.4059 37.144C75.6859 36.888 76.0139 36.688 76.3899 36.544C76.7659 36.4 77.1739 36.328 77.6139 36.328C78.1499 36.328 78.6219 36.428 79.0299 36.628C79.4379 36.82 79.7539 37.092 79.9779 37.444C80.2099 37.788 80.3259 38.192 80.3259 38.656V43H78.8379V41.884L79.1739 41.86C79.0059 42.14 78.8059 42.376 78.5739 42.568C78.3419 42.752 78.0779 42.896 77.7819 43C77.4859 43.096 77.1579 43.144 76.7979 43.144ZM84.8149 43.144C84.1829 43.144 83.6189 42.996 83.1229 42.7C82.6269 42.396 82.2349 41.984 81.9469 41.464C81.6589 40.944 81.5149 40.368 81.5149 39.736C81.5149 39.096 81.6589 38.52 81.9469 38.008C82.2349 37.496 82.6269 37.088 83.1229 36.784C83.6269 36.48 84.1869 36.328 84.8029 36.328C85.2989 36.328 85.7389 36.428 86.1229 36.628C86.5149 36.82 86.8229 37.092 87.0469 37.444L86.8069 37.768V33.916H88.3789V43H86.8909V41.74L87.0589 42.052C86.8349 42.404 86.5229 42.676 86.1229 42.868C85.7229 43.052 85.2869 43.144 84.8149 43.144ZM84.9829 41.704C85.3429 41.704 85.6589 41.62 85.9309 41.452C86.2029 41.284 86.4149 41.052 86.5669 40.756C86.7269 40.46 86.8069 40.12 86.8069 39.736C86.8069 39.36 86.7269 39.024 86.5669 38.728C86.4149 38.424 86.2029 38.188 85.9309 38.02C85.6589 37.852 85.3429 37.768 84.9829 37.768C84.6309 37.768 84.3149 37.856 84.0349 38.032C83.7549 38.2 83.5349 38.432 83.3749 38.728C83.2229 39.016 83.1469 39.352 83.1469 39.736C83.1469 40.12 83.2229 40.46 83.3749 40.756C83.5349 41.052 83.7549 41.284 84.0349 41.452C84.3149 41.62 84.6309 41.704 84.9829 41.704ZM95.1196 43.144C94.4956 43.144 93.9316 43 93.4276 42.712C92.9236 42.416 92.5236 42.012 92.2276 41.5C91.9316 40.988 91.7836 40.408 91.7836 39.76C91.7836 39.112 91.9276 38.536 92.2156 38.032C92.5116 37.528 92.9116 37.128 93.4156 36.832C93.9196 36.536 94.4876 36.388 95.1196 36.388C95.7436 36.388 96.3076 36.536 96.8116 36.832C97.3156 37.12 97.7116 37.516 97.9996 38.02C98.2956 38.524 98.4436 39.104 98.4436 39.76C98.4436 40.416 98.2916 41 97.9876 41.512C97.6836 42.016 97.2796 42.416 96.7756 42.712C96.2796 43 95.7276 43.144 95.1196 43.144ZM95.1196 42.064C95.5196 42.064 95.8796 41.964 96.1996 41.764C96.5276 41.564 96.7836 41.288 96.9676 40.936C97.1596 40.584 97.2556 40.192 97.2556 39.76C97.2556 39.32 97.1596 38.932 96.9676 38.596C96.7836 38.252 96.5276 37.98 96.1996 37.78C95.8796 37.572 95.5196 37.468 95.1196 37.468C94.7116 37.468 94.3436 37.572 94.0156 37.78C93.6956 37.98 93.4396 38.252 93.2476 38.596C93.0556 38.932 92.9596 39.32 92.9596 39.76C92.9596 40.192 93.0556 40.584 93.2476 40.936C93.4396 41.288 93.6956 41.564 94.0156 41.764C94.3436 41.964 94.7116 42.064 95.1196 42.064ZM99.8992 43V36.532H100.991V37.72L100.871 37.552C101.023 37.184 101.255 36.912 101.567 36.736C101.879 36.552 102.259 36.46 102.707 36.46H103.103V37.516H102.539C102.083 37.516 101.715 37.66 101.435 37.948C101.155 38.228 101.015 38.628 101.015 39.148V43H99.8992ZM109.109 43.144C108.501 43.144 107.953 42.996 107.465 42.7C106.985 42.404 106.605 42 106.325 41.488C106.045 40.976 105.905 40.404 105.905 39.772C105.905 39.124 106.045 38.548 106.325 38.044C106.605 37.532 106.985 37.128 107.465 36.832C107.953 36.536 108.501 36.388 109.109 36.388C109.645 36.388 110.121 36.504 110.537 36.736C110.953 36.96 111.281 37.264 111.521 37.648L111.341 37.924V33.916H112.469V43H111.377V41.62L111.521 41.812C111.297 42.236 110.969 42.564 110.537 42.796C110.113 43.028 109.637 43.144 109.109 43.144ZM109.205 42.064C109.613 42.064 109.977 41.964 110.297 41.764C110.617 41.564 110.869 41.292 111.053 40.948C111.245 40.596 111.341 40.204 111.341 39.772C111.341 39.332 111.245 38.94 111.053 38.596C110.869 38.244 110.617 37.968 110.297 37.768C109.977 37.568 109.613 37.468 109.205 37.468C108.805 37.468 108.441 37.572 108.113 37.78C107.793 37.98 107.541 38.252 107.357 38.596C107.173 38.932 107.081 39.324 107.081 39.772C107.081 40.204 107.173 40.596 107.357 40.948C107.541 41.292 107.793 41.564 108.113 41.764C108.433 41.964 108.797 42.064 109.205 42.064ZM114.196 43V36.532H115.288V37.72L115.168 37.552C115.32 37.184 115.552 36.912 115.864 36.736C116.176 36.552 116.556 36.46 117.004 36.46H117.4V37.516H116.836C116.38 37.516 116.012 37.66 115.732 37.948C115.452 38.228 115.312 38.628 115.312 39.148V43H114.196ZM121.463 43.144C120.839 43.144 120.275 43 119.771 42.712C119.267 42.416 118.867 42.012 118.571 41.5C118.275 40.988 118.127 40.408 118.127 39.76C118.127 39.112 118.271 38.536 118.559 38.032C118.855 37.528 119.255 37.128 119.759 36.832C120.263 36.536 120.831 36.388 121.463 36.388C122.087 36.388 122.651 36.536 123.155 36.832C123.659 37.12 124.055 37.516 124.343 38.02C124.639 38.524 124.787 39.104 124.787 39.76C124.787 40.416 124.635 41 124.331 41.512C124.027 42.016 123.623 42.416 123.119 42.712C122.623 43 122.071 43.144 121.463 43.144ZM121.463 42.064C121.863 42.064 122.223 41.964 122.543 41.764C122.871 41.564 123.127 41.288 123.311 40.936C123.503 40.584 123.599 40.192 123.599 39.76C123.599 39.32 123.503 38.932 123.311 38.596C123.127 38.252 122.871 37.98 122.543 37.78C122.223 37.572 121.863 37.468 121.463 37.468C121.055 37.468 120.687 37.572 120.359 37.78C120.039 37.98 119.783 38.252 119.591 38.596C119.399 38.932 119.303 39.32 119.303 39.76C119.303 40.192 119.399 40.584 119.591 40.936C119.783 41.288 120.039 41.564 120.359 41.764C120.687 41.964 121.055 42.064 121.463 42.064ZM126.243 45.4V36.532H127.335V37.924L127.191 37.648C127.431 37.264 127.759 36.96 128.175 36.736C128.591 36.504 129.067 36.388 129.603 36.388C130.211 36.388 130.755 36.536 131.235 36.832C131.723 37.128 132.107 37.532 132.387 38.044C132.667 38.548 132.807 39.124 132.807 39.772C132.807 40.404 132.667 40.976 132.387 41.488C132.107 42 131.723 42.404 131.235 42.7C130.755 42.996 130.207 43.144 129.591 43.144C129.071 43.144 128.595 43.028 128.163 42.796C127.739 42.564 127.411 42.236 127.179 41.812L127.359 41.62V45.4H126.243ZM129.507 42.064C129.915 42.064 130.279 41.964 130.599 41.764C130.919 41.564 131.167 41.292 131.343 40.948C131.527 40.596 131.619 40.204 131.619 39.772C131.619 39.324 131.527 38.932 131.343 38.596C131.167 38.252 130.919 37.98 130.599 37.78C130.279 37.572 129.915 37.468 129.507 37.468C129.099 37.468 128.731 37.568 128.403 37.768C128.083 37.968 127.827 38.244 127.635 38.596C127.451 38.94 127.359 39.332 127.359 39.772C127.359 40.204 127.451 40.596 127.635 40.948C127.827 41.292 128.083 41.564 128.403 41.764C128.731 41.964 129.099 42.064 129.507 42.064ZM136.344 43V33.916H137.46V37.792L137.256 37.684C137.416 37.276 137.672 36.96 138.024 36.736C138.384 36.504 138.804 36.388 139.284 36.388C139.748 36.388 140.16 36.492 140.52 36.7C140.888 36.908 141.176 37.196 141.384 37.564C141.6 37.932 141.708 38.348 141.708 38.812V43H140.58V39.172C140.58 38.812 140.512 38.508 140.376 38.26C140.248 38.012 140.068 37.82 139.836 37.684C139.604 37.54 139.336 37.468 139.032 37.468C138.736 37.468 138.468 37.54 138.228 37.684C137.988 37.82 137.8 38.016 137.664 38.272C137.528 38.52 137.46 38.82 137.46 39.172V43H136.344ZM146.281 43.144C145.657 43.144 145.101 42.996 144.613 42.7C144.125 42.404 143.741 42 143.461 41.488C143.181 40.968 143.041 40.388 143.041 39.748C143.041 39.1 143.177 38.524 143.449 38.02C143.729 37.516 144.105 37.12 144.577 36.832C145.057 36.536 145.593 36.388 146.185 36.388C146.665 36.388 147.089 36.476 147.457 36.652C147.833 36.82 148.149 37.052 148.405 37.348C148.669 37.636 148.869 37.968 149.005 38.344C149.149 38.712 149.221 39.096 149.221 39.496C149.221 39.584 149.213 39.684 149.197 39.796C149.189 39.9 149.177 40 149.161 40.096H143.857V39.136H148.513L147.985 39.568C148.057 39.152 148.017 38.78 147.865 38.452C147.713 38.124 147.489 37.864 147.193 37.672C146.897 37.48 146.561 37.384 146.185 37.384C145.809 37.384 145.465 37.48 145.153 37.672C144.841 37.864 144.597 38.14 144.421 38.5C144.253 38.852 144.185 39.272 144.217 39.76C144.185 40.232 144.257 40.648 144.433 41.008C144.617 41.36 144.873 41.636 145.201 41.836C145.537 42.028 145.901 42.124 146.293 42.124C146.725 42.124 147.089 42.024 147.385 41.824C147.681 41.624 147.921 41.368 148.105 41.056L149.041 41.536C148.913 41.832 148.713 42.104 148.441 42.352C148.177 42.592 147.861 42.784 147.493 42.928C147.133 43.072 146.729 43.144 146.281 43.144ZM150.677 43V36.532H151.769V37.72L151.649 37.552C151.801 37.184 152.033 36.912 152.345 36.736C152.657 36.552 153.037 36.46 153.485 36.46H153.881V37.516H153.317C152.861 37.516 152.493 37.66 152.213 37.948C151.933 38.228 151.793 38.628 151.793 39.148V43H150.677ZM157.848 43.144C157.224 43.144 156.668 42.996 156.18 42.7C155.692 42.404 155.308 42 155.028 41.488C154.748 40.968 154.608 40.388 154.608 39.748C154.608 39.1 154.744 38.524 155.016 38.02C155.296 37.516 155.672 37.12 156.144 36.832C156.624 36.536 157.16 36.388 157.752 36.388C158.232 36.388 158.656 36.476 159.024 36.652C159.4 36.82 159.716 37.052 159.972 37.348C160.236 37.636 160.436 37.968 160.572 38.344C160.716 38.712 160.788 39.096 160.788 39.496C160.788 39.584 160.78 39.684 160.764 39.796C160.756 39.9 160.744 40 160.728 40.096H155.424V39.136H160.08L159.552 39.568C159.624 39.152 159.584 38.78 159.432 38.452C159.28 38.124 159.056 37.864 158.76 37.672C158.464 37.48 158.128 37.384 157.752 37.384C157.376 37.384 157.032 37.48 156.72 37.672C156.408 37.864 156.164 38.14 155.988 38.5C155.82 38.852 155.752 39.272 155.784 39.76C155.752 40.232 155.824 40.648 156 41.008C156.184 41.36 156.44 41.636 156.768 41.836C157.104 42.028 157.468 42.124 157.86 42.124C158.292 42.124 158.656 42.024 158.952 41.824C159.248 41.624 159.488 41.368 159.672 41.056L160.608 41.536C160.48 41.832 160.28 42.104 160.008 42.352C159.744 42.592 159.428 42.784 159.06 42.928C158.7 43.072 158.296 43.144 157.848 43.144Z" fill="#6B7280"/>
<path d="M14.996 69V60.06H18.152C18.744 60.06 19.264 60.172 19.712 60.396C20.16 60.62 20.508 60.94 20.756 61.356C21.012 61.772 21.14 62.26 21.14 62.82C21.14 63.38 21.012 63.868 20.756 64.284C20.508 64.692 20.16 65.012 19.712 65.244C19.272 65.468 18.752 65.58 18.152 65.58H16.172V69H14.996ZM16.172 64.5H18.188C18.548 64.5 18.86 64.432 19.124 64.296C19.388 64.16 19.592 63.964 19.736 63.708C19.88 63.452 19.952 63.156 19.952 62.82C19.952 62.476 19.88 62.18 19.736 61.932C19.592 61.676 19.388 61.48 19.124 61.344C18.86 61.208 18.548 61.14 18.188 61.14H16.172V64.5ZM22.7304 69V60.06H23.7144L28.8504 67.284L28.4064 67.332V60.06H29.5944V69H28.6104L23.4984 61.728L23.9064 61.68V69H22.7304ZM35.7178 69.144C35.0858 69.144 34.5018 69.032 33.9658 68.808C33.4298 68.576 32.9658 68.252 32.5738 67.836C32.1818 67.42 31.8738 66.932 31.6498 66.372C31.4338 65.812 31.3258 65.2 31.3258 64.536C31.3258 63.864 31.4338 63.248 31.6498 62.688C31.8658 62.128 32.1698 61.64 32.5618 61.224C32.9538 60.808 33.4178 60.488 33.9538 60.264C34.4898 60.032 35.0738 59.916 35.7058 59.916C36.3218 59.916 36.8738 60.024 37.3618 60.24C37.8578 60.456 38.2738 60.736 38.6098 61.08C38.9538 61.424 39.1978 61.792 39.3418 62.184L38.2858 62.7C38.0778 62.18 37.7538 61.768 37.3138 61.464C36.8737 61.16 36.3378 61.008 35.7058 61.008C35.0818 61.008 34.5258 61.156 34.0378 61.452C33.5578 61.748 33.1818 62.16 32.9098 62.688C32.6378 63.216 32.5018 63.832 32.5018 64.536C32.5018 65.232 32.6378 65.844 32.9098 66.372C33.1898 66.9 33.5698 67.312 34.0498 67.608C34.5378 67.904 35.0938 68.052 35.7178 68.052C36.2618 68.052 36.7538 67.936 37.1938 67.704C37.6338 67.472 37.9818 67.152 38.2378 66.744C38.4938 66.336 38.6218 65.864 38.6218 65.328V64.776L39.1618 65.28H35.7058V64.26H39.8098V65.052C39.8098 65.676 39.7018 66.24 39.4858 66.744C39.2698 67.248 38.9738 67.68 38.5978 68.04C38.2218 68.392 37.7858 68.664 37.2898 68.856C36.7938 69.048 36.2698 69.144 35.7178 69.144ZM46.4126 69.144C45.7886 69.144 45.2246 69 44.7206 68.712C44.2166 68.416 43.8166 68.012 43.5206 67.5C43.2246 66.988 43.0766 66.408 43.0766 65.76C43.0766 65.112 43.2206 64.536 43.5086 64.032C43.8046 63.528 44.2046 63.128 44.7086 62.832C45.2126 62.536 45.7806 62.388 46.4126 62.388C47.0366 62.388 47.6006 62.536 48.1046 62.832C48.6086 63.12 49.0046 63.516 49.2926 64.02C49.5886 64.524 49.7366 65.104 49.7366 65.76C49.7366 66.416 49.5846 67 49.2806 67.512C48.9766 68.016 48.5726 68.416 48.0686 68.712C47.5726 69 47.0206 69.144 46.4126 69.144ZM46.4126 68.064C46.8126 68.064 47.1726 67.964 47.4926 67.764C47.8206 67.564 48.0766 67.288 48.2606 66.936C48.4526 66.584 48.5486 66.192 48.5486 65.76C48.5486 65.32 48.4526 64.932 48.2606 64.596C48.0766 64.252 47.8206 63.98 47.4926 63.78C47.1726 63.572 46.8126 63.468 46.4126 63.468C46.0046 63.468 45.6366 63.572 45.3086 63.78C44.9886 63.98 44.7326 64.252 44.5406 64.596C44.3486 64.932 44.2526 65.32 44.2526 65.76C44.2526 66.192 44.3486 66.584 44.5406 66.936C44.7326 67.288 44.9886 67.564 45.3086 67.764C45.6366 67.964 46.0046 68.064 46.4126 68.064ZM51.1921 69V62.532H52.2841V63.72L52.1641 63.552C52.3161 63.184 52.5481 62.912 52.8601 62.736C53.1721 62.552 53.5521 62.46 54.0001 62.46H54.3961V63.516H53.8321C53.3761 63.516 53.0081 63.66 52.7281 63.948C52.4481 64.228 52.3081 64.628 52.3081 65.148V69H51.1921ZM57.1977 69V67.86H57.6897C58.1137 67.86 58.4497 67.736 58.6977 67.488C58.9457 67.232 59.0697 66.888 59.0697 66.456V60.06H60.2577V66.432C60.2577 66.952 60.1497 67.404 59.9337 67.788C59.7257 68.172 59.4297 68.472 59.0457 68.688C58.6617 68.896 58.2097 69 57.6897 69H57.1977ZM62.2226 69V60.06H65.3786C65.9706 60.06 66.4906 60.172 66.9386 60.396C67.3866 60.62 67.7346 60.94 67.9826 61.356C68.2386 61.772 68.3666 62.26 68.3666 62.82C68.3666 63.38 68.2386 63.868 67.9826 64.284C67.7346 64.692 67.3866 65.012 66.9386 65.244C66.4986 65.468 65.9786 65.58 65.3786 65.58H63.3986V69H62.2226ZM63.3986 64.5H65.4146C65.7746 64.5 66.0866 64.432 66.3506 64.296C66.6146 64.16 66.8186 63.964 66.9626 63.708C67.1066 63.452 67.1786 63.156 67.1786 62.82C67.1786 62.476 67.1066 62.18 66.9626 61.932C66.8186 61.676 66.6146 61.48 66.3506 61.344C66.0866 61.208 65.7746 61.14 65.4146 61.14H63.3986V64.5ZM74.0849 69.144C73.4529 69.144 72.8689 69.032 72.3329 68.808C71.7969 68.576 71.3329 68.252 70.9409 67.836C70.5489 67.42 70.2409 66.932 70.0169 66.372C69.8009 65.812 69.6929 65.2 69.6929 64.536C69.6929 63.864 69.8009 63.248 70.0169 62.688C70.2329 62.128 70.5369 61.64 70.9289 61.224C71.3209 60.808 71.7849 60.488 72.3209 60.264C72.8569 60.032 73.4409 59.916 74.0729 59.916C74.6889 59.916 75.2409 60.024 75.7289 60.24C76.2249 60.456 76.6409 60.736 76.9769 61.08C77.3209 61.424 77.5649 61.792 77.7089 62.184L76.6529 62.7C76.4449 62.18 76.1209 61.768 75.6809 61.464C75.2409 61.16 74.7049 61.008 74.0729 61.008C73.4489 61.008 72.8929 61.156 72.4049 61.452C71.9249 61.748 71.5489 62.16 71.2769 62.688C71.0049 63.216 70.8689 63.832 70.8689 64.536C70.8689 65.232 71.0049 65.844 71.2769 66.372C71.5569 66.9 71.9369 67.312 72.4169 67.608C72.9049 67.904 73.4609 68.052 74.0849 68.052C74.6289 68.052 75.1209 67.936 75.5609 67.704C76.0009 67.472 76.3489 67.152 76.6049 66.744C76.8609 66.336 76.9889 65.864 76.9889 65.328V64.776L77.5289 65.28H74.0729V64.26H78.1769V65.052C78.1769 65.676 78.0689 66.24 77.8529 66.744C77.6369 67.248 77.3409 67.68 76.9649 68.04C76.5889 68.392 76.1529 68.664 75.6569 68.856C75.1609 69.048 74.6369 69.144 74.0849 69.144ZM83.4598 70.8C82.8118 70.056 82.3198 69.232 81.9838 68.328C81.6478 67.416 81.4798 66.448 81.4798 65.424C81.4798 64.392 81.6478 63.424 81.9838 62.52C82.3198 61.616 82.8118 60.796 83.4598 60.06H84.4198C83.8438 60.876 83.4078 61.74 83.1118 62.652C82.8158 63.556 82.6678 64.48 82.6678 65.424C82.6678 66.368 82.8158 67.296 83.1118 68.208C83.4078 69.112 83.8438 69.976 84.4198 70.8H83.4598ZM85.7187 69V60.06H86.7987L90.1467 64.824H89.5947L92.9187 60.06H93.9987V69H92.8107V61.548L93.2307 61.68L89.9067 66.36H89.8107L86.5227 61.68L86.8947 61.548V69H85.7187ZM95.1203 69L98.3243 60.06H99.7163L102.92 69H101.66L100.928 66.9H97.1123L96.3803 69H95.1203ZM97.4843 65.82H100.556L98.8523 60.912H99.1883L97.4843 65.82ZM103.183 69L106.099 64.464L103.255 60.06H104.599L107.011 63.816H106.507L108.919 60.06H110.263L107.419 64.464L110.335 69H108.991L106.507 65.112H107.011L104.515 69H103.183ZM111.789 69V67.56H112.953V69H111.789ZM117 69V68.184L119.472 65.508C119.96 64.988 120.348 64.56 120.636 64.224C120.932 63.888 121.148 63.588 121.284 63.324C121.42 63.06 121.488 62.78 121.488 62.484C121.488 61.996 121.344 61.62 121.056 61.356C120.768 61.092 120.388 60.96 119.916 60.96C119.436 60.96 119.028 61.1 118.692 61.38C118.356 61.652 118.124 62.04 117.996 62.544L116.928 62.268C117.032 61.788 117.224 61.372 117.504 61.02C117.784 60.668 118.132 60.396 118.548 60.204C118.964 60.012 119.42 59.916 119.916 59.916C120.46 59.916 120.936 60.024 121.344 60.24C121.76 60.448 122.084 60.74 122.316 61.116C122.556 61.492 122.676 61.928 122.676 62.424C122.676 62.752 122.608 63.072 122.472 63.384C122.336 63.696 122.136 64.028 121.872 64.38C121.608 64.724 121.264 65.124 120.84 65.58L118.632 67.98H122.868V69H117ZM126.605 69V60.06H127.685L131.033 64.824H130.481L133.805 60.06H134.885V69H133.697V61.548L134.117 61.68L130.793 66.36H130.697L127.409 61.68L127.781 61.548V69H126.605ZM136.871 69V60.06H140.627C141.163 60.06 141.623 60.156 142.007 60.348C142.399 60.54 142.699 60.812 142.907 61.164C143.123 61.508 143.231 61.92 143.231 62.4C143.231 62.84 143.115 63.24 142.883 63.6C142.659 63.952 142.327 64.228 141.887 64.428L141.875 63.984C142.259 64.128 142.575 64.32 142.823 64.56C143.079 64.792 143.271 65.064 143.399 65.376C143.527 65.68 143.591 66.004 143.591 66.348C143.591 67.172 143.327 67.82 142.799 68.292C142.271 68.764 141.551 69 140.639 69H136.871ZM138.047 67.92H140.687C141.207 67.92 141.623 67.78 141.935 67.5C142.247 67.22 142.403 66.84 142.403 66.36C142.403 65.88 142.247 65.5 141.935 65.22C141.623 64.932 141.207 64.788 140.687 64.788H138.047V67.92ZM138.047 63.732H140.603C141.035 63.732 141.383 63.608 141.647 63.36C141.911 63.104 142.043 62.78 142.043 62.388C142.043 61.98 141.911 61.668 141.647 61.452C141.383 61.236 141.035 61.128 140.603 61.128H138.047V63.732ZM144.496 70.8C145.064 69.976 145.496 69.112 145.792 68.208C146.088 67.296 146.236 66.368 146.236 65.424C146.236 64.48 146.088 63.556 145.792 62.652C145.496 61.74 145.064 60.876 144.496 60.06H145.456C146.104 60.796 146.592 61.616 146.92 62.52C147.256 63.424 147.424 64.392 147.424 65.424C147.424 66.448 147.256 67.416 146.92 68.328C146.592 69.232 146.104 70.056 145.456 70.8H144.496Z" fill="#6B7280"/>
</svg>
