<svg xmlns="http://www.w3.org/2000/svg" version="1.0" width="2500.000000pt" height="1500.000000pt" viewBox="0 0 2500.000000 1500.000000" preserveAspectRatio="xMidYMid meet">

<g transform="translate(0.000000,1500.000000) scale(0.100000,-0.100000)" fill="#e02424" stroke="none">
<path d="M18120 10399 c-238 -11 -414 -25 -960 -74 -2185 -200 -5320 -409 -9385 -625 -319 -17 -776 -42 -1015 -54 l-435 -23 360 4 c905 11 10848 103 10850 101 2 -2 -53 -613 -121 -1358 -68 -745 -123 -1364 -121 -1374 1 -11 211 664 466 1500 256 835 469 1522 474 1525 16 11 240 32 412 38 698 25 1220 -100 1565 -377 43 -34 102 -90 131 -125 49 -58 143 -194 151 -217 2 -7 79 -5 238 7 l235 18 3 49 c11 177 -115 403 -309 552 -323 248 -862 392 -1629 434 -208 11 -660 11 -910 -1z" fill="#e02424"/>
<path d="M19346 9155 c-265 -20 -784 -80 -721 -84 427 -23 977 -91 1350 -166 645 -130 1009 -301 1113 -523 l27 -57 -1 -245 c0 -196 -4 -259 -18 -315 -62 -254 -208 -348 -656 -424 l-165 -28 400 5 c756 9 1342 -45 1839 -169 759 -191 1195 -521 1328 -1007 18 -65 21 -107 22 -260 l1 -184 32 99 c118 367 104 712 -40 998 -253 505 -934 797 -1962 841 -85 4 -155 11 -155 15 0 4 11 50 25 101 79 294 41 580 -110 818 -42 67 -179 203 -260 259 -227 157 -561 266 -975 317 -184 22 -823 28 -1074 9z" fill="#e02424"/>
<path d="M3036 8588 c-3 -13 -12 -81 -21 -153 -23 -183 -95 -686 -101 -707 -5 -17 22 -18 466 -18 367 0 472 3 475 13 3 6 29 173 59 370 30 198 57 361 60 364 5 5 1736 -1068 1736 -1077 0 -3 -208 -113 -462 -245 -254 -132 -624 -324 -823 -427 -198 -104 -366 -186 -373 -183 -24 9 -150 -23 -214 -54 -34 -17 -69 -31 -76 -31 -7 0 -31 -9 -53 -21 -23 -11 -43 -18 -46 -15 -3 3 15 141 41 308 25 167 46 309 46 316 0 9 -100 12 -469 12 l-469 0 -6 -37 c-17 -104 -126 -839 -126 -846 0 -5 392 -7 883 -4 937 5 983 7 1230 58 453 92 734 252 955 544 128 170 197 340 242 595 71 407 6 711 -191 901 -170 164 -398 270 -684 319 -214 36 -323 40 -1207 40 l-868 0 -4 -22z" fill="#e02424"/>
<path d="M13422 7387 c-101 -672 -183 -1226 -183 -1230 1 -5 490 -6 1089 -4 946 4 1099 7 1182 21 378 65 609 229 710 503 76 209 80 447 9 584 -46 90 -191 208 -301 245 l-53 17 63 28 c83 37 205 122 248 173 52 60 102 170 119 259 58 306 -51 501 -325 580 -155 45 -206 47 -1320 47 l-1055 0 -183 -1223z m2083 687 c22 -11 51 -36 63 -55 21 -30 23 -43 19 -102 -6 -95 -42 -151 -122 -192 l-59 -30 -613 -3 c-337 -2 -613 -1 -613 1 0 2 14 92 30 200 17 108 30 199 30 202 0 3 276 4 613 3 598 -3 613 -3 652 -24z m-93 -914 c44 -13 93 -52 113 -91 19 -36 19 -122 0 -186 -18 -60 -80 -135 -139 -166 -41 -22 -42 -22 -698 -25 -362 -1 -658 0 -658 2 0 3 16 109 35 236 19 127 35 233 35 235 0 10 1275 5 1312 -5z" fill="#e02424"/>
<path d="M9074 8583 c3 -10 127 -544 276 -1188 149 -643 274 -1180 277 -1192 l5 -23 387 0 387 0 335 718 335 717 64 0 64 0 128 -695 c70 -382 130 -705 133 -717 l5 -23 353 0 352 0 560 1062 c308 584 595 1129 638 1210 l78 148 -346 0 -345 0 -400 -799 c-219 -440 -403 -802 -408 -805 -7 -4 -129 533 -264 1162 l-10 42 -455 -2 -456 -3 -294 -620 c-161 -341 -297 -623 -301 -627 -4 -4 -82 366 -172 822 l-165 830 -383 0 c-360 0 -383 -1 -378 -17z" fill="#e02424"/>
<path d="M6449 8573 c0 -5 -82 -550 -182 -1213 l-182 -1205 319 -3 c175 -1 321 0 324 2 2 3 33 195 68 428 34 233 66 438 69 456 l6 32 112 0 112 -1 370 -459 370 -459 423 -1 424 0 -30 38 c-16 20 -253 316 -526 657 -273 341 -495 623 -493 626 1 4 306 254 677 555 l675 549 -408 3 -407 2 -470 -390 -470 -390 -126 0 -126 0 6 33 c3 17 28 185 56 372 28 187 52 348 54 358 4 16 -16 17 -320 17 -178 0 -324 -3 -325 -7z" fill="#e02424"/>
<path d="M21170 5863 c-277 -37 -642 -195 -1039 -450 l-114 -73 -1036 -1 c-3649 -3 -16661 -35 -16667 -41 -6 -7 8 -159 23 -245 l5 -33 8965 0 8966 0 86 64 c208 154 422 259 640 314 92 23 127 26 266 27 138 0 171 -3 240 -23 113 -33 232 -93 328 -166 l83 -63 -7 71 c-31 310 -186 528 -429 601 -55 16 -243 28 -310 18z" fill="#e02424"/>
</g>
</svg>